<svg height="48pt" viewBox="0 0 48 48" width="48pt" xmlns="http://www.w3.org/2000/svg" xmlns:xlink="http://www.w3.org/1999/xlink"><linearGradient id="a" gradientTransform="matrix(47.365 0 0 47.432 .635 .507)" gradientUnits="userSpaceOnUse" x1=".183361" x2=".902744" y1=".249178" y2=".903477"><stop offset=".02608695652" stop-color="#b3ffab"/><stop offset=".98695652174" stop-color="#12fff7"/></linearGradient><path d="m38.607 8.505c.834.738 2.109.661 2.847-.173.738-.833.66-2.108-.173-2.846-3.63-3.204-8.321-4.979-13.161-4.979-5.267 0-10.327 2.098-14.061 5.82-3.722 3.734-5.82 8.794-5.82 14.06 0 5.267 2.098 10.327 5.82 14.061 3.734 3.722 8.794 5.82 14.061 5.82 5.243 0 10.28-2.075 14.002-5.763 3.723-3.688 5.832-8.712 5.878-13.956.006-1.113-.892-2.025-2.005-2.034-1.113-.01-2.022.886-2.029 1.999-.034 4.184-1.717 8.183-4.69 11.122-2.962 2.95-6.973 4.598-11.156 4.598-4.207 0-8.241-1.671-11.202-4.645-2.974-2.961-4.645-6.995-4.645-11.202 0-4.206 1.671-8.24 4.645-11.202 2.961-2.973 6.995-4.644 11.202-4.644 3.861 0 7.595 1.417 10.487 3.964zm4.334 6.27c.394 1.043 1.561 1.57 2.604 1.175 1.043-.394 1.57-1.561 1.176-2.604-.288-.726-.611-1.452-.968-2.144-.516-.992-1.737-1.377-2.726-.858-.989.518-1.369 1.739-.847 2.725.288.553.542 1.13.761 1.706zm-32.525 20.402c.576-.627.536-1.602-.089-2.176-.625-.573-1.6-.533-2.175.089l-6.429 7.013c-.698.752-1.082 1.734-1.088 2.754-.006 1.195.506 2.34 1.407 3.119l1.049.919c.77.673 1.752 1.038 2.763 1.044 1.195.007 2.34-.488 3.145-1.362h.009l6.428-7.013c.576-.627.536-1.602-.089-2.175-.625-.574-1.599-.53-2.175.097l-6.429 7.004c-.23.245-.538.375-.872.373-.272-.001-.544-.1-.754-.285l-1.05-.92c-.227-.195-.357-.477-.356-.784.002-.255.1-.501.268-.693h.009zm27.162-15.487c0-.58.471-1.05 1.051-1.05.58 0 1.051.47 1.051 1.05v7.883c0 1.45-1.177 2.627-2.627 2.627h-17.866c-1.451 0-2.628-1.177-2.628-2.627v-7.883c0-.58.471-1.05 1.051-1.05.58 0 1.051.47 1.051 1.05v6.832c0 .87.706 1.576 1.577 1.576h15.764c.87 0 1.576-.706 1.576-1.576zm-18.391-6.305h17.866c.29 0 .525.235.525.525v.505c0 .29-.178.679-.397.869l-7.87 6.821c-.657.57-1.725.57-2.383 0l-7.87-6.821c-.219-.19-.397-.579-.397-.869v-.505c0-.29.236-.525.526-.525zm-1.577-2.102h21.019c.58 0 1.051.471 1.051 1.051v2.648c0 .58-.361 1.353-.806 1.725l-8.739 7.309c-1.112.931-2.918.931-4.031 0l-8.739-7.309c-.445-.372-.806-1.145-.806-1.725v-2.648c0-.58.471-1.051 1.051-1.051z" fill="url(#a)" fill-rule="evenodd"/></svg>